<?xml version="1.0" standalone="no"?>
<!DOCTYPE svg PUBLIC "-//W3C//DTD SVG 20010904//EN"
 "http://www.w3.org/TR/2001/REC-SVG-20010904/DTD/svg10.dtd">
<svg version="1.0" xmlns="http://www.w3.org/2000/svg"
 width="366.000000pt" height="366.000000pt" viewBox="0 0 366.000000 366.000000"
 preserveAspectRatio="xMidYMid meet">
<metadata>
Created by potrace 1.11, written by Peter Selinger 2001-2013
</metadata>
<g transform="translate(0.000000,366.000000) scale(0.100000,-0.100000)"
fill="#000000" stroke="none">
<path d="M1516 3528 c-82 -10 -219 -54 -313 -102 -227 -114 -402 -326 -494
-596 -31 -92 -33 -101 -33 -260 0 -124 4 -182 17 -234 10 -38 16 -70 15 -71
-2 -2 -39 -6 -83 -9 -131 -11 -469 -64 -570 -89 l-50 -13 -3 -1077 -2 -1077
1731 0 1731 0 -78 88 c-43 48 -96 105 -116 127 -21 22 -57 78 -79 125 -122
254 -202 390 -315 540 l-81 107 101 32 c283 92 497 310 594 606 106 324 54
647 -154 952 -105 154 -335 387 -509 516 -27 20 -54 40 -60 45 -5 4 -54 36
-109 70 -208 130 -452 238 -658 291 -98 25 -140 31 -265 34 -81 2 -179 -1
-217 -5z m197 -744 c97 -50 126 -178 63 -274 -15 -22 -24 -45 -21 -49 4 -8
173 -129 363 -263 37 -26 72 -51 77 -55 14 -11 126 -85 252 -167 56 -36 106
-66 111 -66 6 0 18 12 27 28 26 40 51 61 97 82 84 37 175 4 219 -81 39 -78 10
-201 -65 -266 -122 -108 -285 -35 -286 128 l0 45 -235 158 c-130 87 -315 215
-411 284 -97 70 -182 131 -190 137 -8 6 -25 5 -47 -3 -81 -29 -177 -5 -230 58
-79 93 -23 258 104 309 39 16 137 13 172 -5z"/>
</g>
</svg>
